{
  "title": "The Secret Life of Pets 2016 720p HDRIP AC3 X264 MutzNutz",
  "uid": 15742240,
  "size": 2575352964,
  "categoryP": "video",
  "categoryS": "hd___movies",
  "magnet": "?xt=urn:btih:31848104d3547274ffc700e91f0c8ba13229d259&amp;dn=The+Secret+Life+of+Pets+2016+720p+HDRIP+AC3+X264+MutzNutz&amp;tr=udp%3A%2F%2Ftracker.leechers-paradise.org%3A6969&amp;tr=udp%3A%2F%2Fzer0day.ch%3A1337&amp;tr=udp%3A%2F%2Fopen.demonii.com%3A1337&amp;tr=udp%3A%2F%2Ftracker.coppersurfer.tk%3A6969&amp;tr=udp%3A%2F%2Fexodus.desync.com%3A6969",
  "seeders": 48,
  "leechers": 7,
  "uploader": "makintos13",
  "files": 2,
  "time": 1472929395,
  "description": "The Secret Life of Pets 2016 720p HDRIP AC3 X264 MutzNutz\r\n\r\nscreens:\r\n \nhttps://imgmak.com/aDr\r\n \nhttps://imgmak.com/aDB\r\n \nhttps://imgmak.com/aDI\r\n \nhttps://imgmak.com/aDq\r\n \nhttps://imgmak.com/aDt\r\n \nhttps://imgmak.com/aD2\r\n\r\n\r\nFormat                                   : Matroska\r\nFormat version                           : Version 2\r\nFile size                                : 2.40 GiB\r\nDuration                                 : 1h 26mn\r\nOverall bit rate                         : 3 973 Kbps\r\nEncoded date                             : UTC 2016-09-01 18:03:21\r\nlanguage                                 : English\r\n\r\nsource                                   : titan 1080p hd ty\r\n \nhttp://www.imdb.com/title/tt2709768/\r\n\r\nVideo\r\nID                                       : 1\r\nFormat                                   : AVC\r\nFormat/Info                              : Advanced Video Codec\r\nFormat profile                           :   \r\nFormat settings, CABAC                   : Yes\r\nFormat settings, ReFrames                : 4 frames\r\nCodec ID                                 : V_MPEG4/ISO/AVC\r\nDuration                                 : 1h 26mn\r\nBit rate                                 : 3 747 Kbps\r\nWidth                                    : 1 280 pixels\r\nHeight                                   : 688 pixels\r\nDisplay aspect ratio                     : 1.85:1\r\n\r\nFrame rate mode                          : Constant\r\nFrame rate                               : 23.976 (24000/1001) fps\r\nColor space                              : YUV\r\nChroma subsampling                       : 4:2:0\r\nBit depth                                : 8 bits\r\nScan type                                : Progressive\r\nBits/(Pixel*Frame)                       : 0.177\r\nStream size                              : 2.26 GiB (94%)\r\nWriting library                          : x264 core 146 r2538 121396c\r\nDefault                                  : Yes\r\nForced                                   : No\r\n\r\nAudio\r\nID                                       : 2\r\nFormat                                   : AC-3\r\nFormat/Info                              : Audio Coding 3\r\nMode extension                           : CM (complete main)\r\nFormat settings, Endianness              : Big\r\nCodec ID                                 : A_AC3\r\nDuration                                 : 1h 26mn\r\nBit rate mode                            : Constant\r\nBit rate                                 : 224 Kbps\r\nChannel(s)                               : 2 channels\r\nChannel positions                        : Front: L R\r\nSampling rate                            : 44.1 KHz\r\nFrame rate                               : 28.711 fps (1536 spf)\r\nCompression mode                         : Lossy\r\nStream size                              : 138 MiB (6%)\r\nLanguage                                 : English\r\nDefault                                  : Yes\r\nForced                                   : No",
  "parsed": {
    "xt": "urn:btih:31848104d3547274ffc700e91f0c8ba13229d259",
    "dn": "The Secret Life of Pets 2016 720p HDRIP AC3 X264 MutzNutz",
    "tr": [
      "udp://exodus.desync.com:6969",
      "udp://open.demonii.com:1337",
      "udp://tracker.coppersurfer.tk:6969",
      "udp://tracker.leechers-paradise.org:6969",
      "udp://zer0day.ch:1337"
    ],
    "infoHash": "31848104d3547274ffc700e91f0c8ba13229d259",
    "infoHashBuffer": {
      "type": "Buffer",
      "data": [
        49,
        132,
        129,
        4,
        211,
        84,
        114,
        116,
        255,
        199,
        0,
        233,
        31,
        12,
        139,
        161,
        50,
        41,
        210,
        89
      ]
    },
    "name": "The Secret Life of Pets 2016 720p HDRIP AC3 X264 MutzNutz",
    "announce": [
      "udp://exodus.desync.com:6969",
      "udp://open.demonii.com:1337",
      "udp://tracker.coppersurfer.tk:6969",
      "udp://tracker.leechers-paradise.org:6969",
      "udp://zer0day.ch:1337"
    ],
    "urlList": []
  },
  "previous": 55,
  "peers": 44,
  "last_updated": "2016-12-24T21:31:56.430Z"
}